<svg width="400" height="220" version="1.0" viewBox="0 0 400 220" xmlns="http://www.w3.org/2000/svg">
  <style>@media (prefers-color-scheme:dark){g[fill]{filter:invert(1);stroke:none}}</style>
  <g transform="scale(.1)" stroke="#fff" stroke-width="10">
    <!-- "./" in black -->
    <g fill="#000">
      <circle cx="220" cy="1570" r="190"/>
      <path d="m1330 312c-30 41-698 1492-710 1528s25 66 100 101c77 36 102 34 124 3s701-1477 716-1525c15-47-20-73-84-104s-116-44-146-3z"/>
    </g>
    <!-- "tq" in black -->
    <g fill="#000">
      <!-- "t" letter: vertical stem + crossbar (no dot, replacing j) -->
      <rect x="2200" y="200" width="300" height="1560" rx="40"/>
      <rect x="1900" y="650" width="900" height="160" rx="40"/>
      <!-- "q" letter - unchanged from original -->
      <path d="M2867 1233c30 302 250 499 438 527 144 19 244 0 375-90v410c0 81 0 100 150 100 136 0 150-20 150-150v-1420c0-99-19-100-150-100s-139 15-139 82c-103-89-351-149-523-49s-342 278-301 690zm803-107c0 292-105 356-237 356-178 0-249-147-273-296-27-168 25-420 262-420 171 0 248 89 248 360z"/>
    </g>
  </g>
</svg>
